<svg xmlns="http://www.w3.org/2000/svg" display="none">
	<symbol id="roman3" viewBox="0 0 24 24">
		<g>
		<path d="M9 7V9H8V15H9V17H5V15H6V9H5V7H9M14 7V9H13V15H14V17H10V15H11V9H10V7H14M19 7V9H18V15H19V17H15V15H16V9H15V7H19Z" />
		</g>
	</symbol>
	<symbol id="roman4" viewBox="0 0 24 24">
		<g>
		<path d="M12 7L14 17H16L18 7H16L15 12L14 7H12M11 7V9H10V15H11V17H7V15H8V9H7V7H11Z" />
		</g>
	</symbol>
	<symbol id="roman1" viewBox="0 0 24 24">
		<g>
		<path d="M14 7V9H13V15H14V17H10V15H11V9H10V7H14Z" />
		</g>
	</symbol>
	<symbol id="roman2" viewBox="0 0 24 24">
		<g>
		<path d="M11 7V9H10V15H11V17H7V15H8V9H7V7H11M17 7V9H16V15H17V17H13V15H14V9H13V7H17Z" />
		</g>
	</symbol>
</svg>