<svg xmlns="http://www.w3.org/2000/svg" display="none">
	<symbol id="roman3" viewBox="0 0 24 24">
		<g>
		<path d="M9 7V9H8V15H9V17H5V15H6V9H5V7H9M14 7V9H13V15H14V17H10V15H11V9H10V7H14M19 7V9H18V15H19V17H15V15H16V9H15V7H19Z" />
		</g>
	</symbol>
	<symbol id="roman4" viewBox="0 0 24 24">
		<g>
		<path d="M12 7L14 17H16L18 7H16L15 12L14 7H12M11 7V9H10V15H11V17H7V15H8V9H7V7H11Z" />
		</g>
	</symbol>
	<symbol id="roman1" viewBox="0 0 24 24">
		<g>
		<path d="M14 7V9H13V15H14V17H10V15H11V9H10V7H14Z" />
		</g>
	</symbol>
	<symbol id="roman2" viewBox="0 0 24 24">
		<g>
		<path d="M11 7V9H10V15H11V17H7V15H8V9H7V7H11M17 7V9H16V15H17V17H13V15H14V9H13V7H17Z" />
		</g>
	</symbol>
	<symbol id="light" viewBox="0 0 512 512">
		<g>
		<path d="m256,105.5c-83.9,0-152.2,68.3-152.2,152.2 0,83.9 68.3,152.2 152.2,152.2 83.9,0 152.2-68.3 152.2-152.2 0-84-68.3-152.2-152.2-152.2zm0,263.5c-61.4,0-111.4-50-111.4-111.4 0-61.4 50-111.4 111.4-111.4 61.4,0 111.4,50 111.4,111.4 0,61.4-50,111.4-111.4,111.4z"/>
      <path d="m256,74.8c11.3,0 20.4-9.1 20.4-20.4v-23c0-11.3-9.1-20.4-20.4-20.4-11.3,0-20.4,9.1-20.4,20.4v23c2.84217e-14,11.3 9.1,20.4 20.4,20.4z"/>
      <path d="m256,437.2c-11.3,0-20.4,9.1-20.4,20.4v22.9c0,11.3 9.1,20.4 20.4,20.4 11.3,0 20.4-9.1 20.4-20.4v-22.9c0-11.2-9.1-20.4-20.4-20.4z"/>
      <path d="m480.6,235.6h-23c-11.3,0-20.4,9.1-20.4,20.4 0,11.3 9.1,20.4 20.4,20.4h23c11.3,0 20.4-9.1 20.4-20.4 0-11.3-9.1-20.4-20.4-20.4z"/>
      <path d="m54.4,235.6h-23c-11.3,0-20.4,9.1-20.4,20.4 0,11.3 9.1,20.4 20.4,20.4h22.9c11.3,0 20.4-9.1 20.4-20.4 0.1-11.3-9.1-20.4-20.3-20.4z"/>
      <path d="M400.4,82.8L384.1,99c-8,8-8,20.9,0,28.9s20.9,8,28.9,0l16.2-16.2c8-8,8-20.9,0-28.9S408.3,74.8,400.4,82.8z"/>
      <path d="m99,384.1l-16.2,16.2c-8,8-8,20.9 0,28.9 8,8 20.9,8 28.9,0l16.2-16.2c8-8 8-20.9 0-28.9s-20.9-7.9-28.9,0z"/>
      <path d="m413,384.1c-8-8-20.9-8-28.9,0-8,8-8,20.9 0,28.9l16.2,16.2c8,8 20.9,8 28.9,0 8-8 8-20.9 0-28.9l-16.2-16.2z"/>
      <path d="m99,127.9c8,8 20.9,8 28.9,0 8-8 8-20.9 0-28.9l-16.2-16.2c-8-8-20.9-8-28.9,0-8,8-8,20.9 0,28.9l16.2,16.2z"/>
		</g>
	</symbol>
	<symbol id="dark" viewBox="0 0 32 32">
		<g>
		<path d="M12.516,4.509A12,12,0,0,0,22.3,19.881,12.317,12.317,0,0,0,24,20a11.984,11.984,0,0,0,3.49-.514,12.1,12.1,0,0,1-9.963,8.421A12.679,12.679,0,0,1,16,28,12,12,0,0,1,12.516,4.509M16,0a16.5,16.5,0,0,0-2.212.15A16,16,0,0,0,16,32a16.526,16.526,0,0,0,2.01-.123A16.04,16.04,0,0,0,31.85,18.212,16.516,16.516,0,0,0,32,15.944,1.957,1.957,0,0,0,30,14a2.046,2.046,0,0,0-1.23.413A7.942,7.942,0,0,1,24,16a8.35,8.35,0,0,1-1.15-.08,7.995,7.995,0,0,1-5.264-12.7A2.064,2.064,0,0,0,16.056,0Z" />
		</g>
	</symbol>
</svg>